<?xml version="1.0" encoding="UTF-8" standalone="no"?>
<!-- Uploaded to: SVG Repo, www.svgrepo.com, Generator: SVG Repo Mixer Tools -->

<svg
   width="800px"
   height="800px"
   viewBox="0 0 64 64"
   version="1.1"
   id="svg22"
   sodipodi:docname="app_icon.svg"
   inkscape:version="1.4 (e7c3feb1, 2024-10-09)"
   xml:space="preserve"
   xmlns:inkscape="http://www.inkscape.org/namespaces/inkscape"
   xmlns:sodipodi="http://sodipodi.sourceforge.net/DTD/sodipodi-0.dtd"
   xmlns="http://www.w3.org/2000/svg"
   xmlns:svg="http://www.w3.org/2000/svg"><defs
     id="defs22" /><sodipodi:namedview
     id="namedview22"
     pagecolor="#ffffff"
     bordercolor="#000000"
     borderopacity="0.25"
     inkscape:showpageshadow="2"
     inkscape:pageopacity="0.0"
     inkscape:pagecheckerboard="0"
     inkscape:deskcolor="#d1d1d1"
     inkscape:zoom="0.99017733"
     inkscape:cx="373.16548"
     inkscape:cy="411.03749"
     inkscape:window-width="1728"
     inkscape:window-height="981"
     inkscape:window-x="0"
     inkscape:window-y="38"
     inkscape:window-maximized="1"
     inkscape:current-layer="svg22" /><g
     data-name="05_Note Book"
     id="_05_Note_Book"><path
       d="M57,52H3a1,1,0,0,1-1-1V18a1,1,0,0,1,1-1H57a1,1,0,0,1,1,1V51A1,1,0,0,1,57,52Z"
       style="fill:#0455bf"
       id="path1" /><path
       d="M53,12H38.24A19.148,19.148,0,0,0,31,13.43c-.35.13-.7.29-1.04.45q-.465-.225-.96-.42A19.111,19.111,0,0,0,21.69,12H7a1,1,0,0,0-1,1V47a1,1,0,0,0,1,1H21.69A16.949,16.949,0,0,1,29,49.65q.255.1.51.24a1.03,1.03,0,0,0,.45.11.988.988,0,0,0,.45-.1l.21-.11c.12-.06.25-.12.38-.17A17.119,17.119,0,0,1,38.24,48H53a1,1,0,0,0,1-1V13A1,1,0,0,0,53,12Z"
       style="fill:#fdfeff"
       id="path2" /><path
       d="M31.515,51.579A15.179,15.179,0,0,1,38.237,50H53a3,3,0,0,0,3-3V17H55V47a2,2,0,0,1-2,2H38.237a16.183,16.183,0,0,0-7.168,1.684l-.216.107a2,2,0,0,1-1.8-.012A16.173,16.173,0,0,0,21.692,49H7a2,2,0,0,1-2-2V17H4V47a3,3,0,0,0,3,3H21.692a15.163,15.163,0,0,1,6.9,1.669A3.02,3.02,0,0,0,29.963,52a2.984,2.984,0,0,0,1.334-.313Z"
       style="fill:#c3d6dd"
       id="path3" /><path
       d="M54,47a1,1,0,0,1-1,1H38.237a17.189,17.189,0,0,0-7.613,1.788l-.216.107a.993.993,0,0,1-.445.1,1.006,1.006,0,0,1-.457-.11A17.164,17.164,0,0,0,21.692,48H7a1,1,0,0,1-1-1V15H5V47a2,2,0,0,0,2,2H21.692a16.173,16.173,0,0,1,7.357,1.779,2,2,0,0,0,1.8.012l.216-.107A16.183,16.183,0,0,1,38.237,49H53a2,2,0,0,0,2-2V15H54Z"
       style="fill:#dfeaef"
       id="path5" /><path
       d="M16,24a1,1,0,0,1-.555-.168L13,22.2l-2.445,1.63A1,1,0,0,1,9,23V12h8V23a1,1,0,0,1-1,1Z"
       style="fill:#d6e8f2"
       id="path6" /><path
       d="M17,23a1,1,0,0,1-.555-.168L14,21.2l-2.445,1.63A1,1,0,0,1,10,22V12h8V22a1,1,0,0,1-1,1Z"
       style="fill:#f74e0c"
       id="path7" /><path
       d="M12,22V12H10V22a1,1,0,0,0,1.555.832l.563-.375A.986.986,0,0,1,12,22Z"
       style="fill:#e03a07"
       id="path8" /><rect
       height="2"
       style="fill:#d6e8f2"
       width="15"
       x="34"
       y="37"
       id="rect8" /><rect
       height="2"
       style="fill:#d6e8f2"
       width="13"
       x="36"
       y="41"
       id="rect9" /><rect
       height="2"
       style="fill:#d6e8f2"
       width="15"
       x="11"
       y="37"
       id="rect10" /><rect
       height="2"
       style="fill:#d6e8f2"
       width="15"
       x="11"
       y="33"
       id="rect11" /><rect
       height="2"
       style="fill:#d6e8f2"
       width="15"
       x="11"
       y="29"
       id="rect12" /><rect
       height="2"
       style="fill:#d6e8f2"
       width="7"
       x="11"
       y="41"
       id="rect13" /><rect
       height="2"
       style="fill:#d6e8f2"
       width="2"
       x="24"
       y="41"
       id="rect14" /><rect
       height="2"
       style="fill:#d6e8f2"
       width="2"
       x="20"
       y="41"
       id="rect15" /><path
       d="M31,13.43V49.62c-.13.05-.26.11-.38.17l-.21.11a.988.988,0,0,1-.45.1,1.03,1.03,0,0,1-.45-.11q-.255-.135-.51-.24V13.46q.495.195.96.42C30.3,13.72,30.65,13.56,31,13.43Z"
       style="fill:#f0f4f7"
       id="path15" /></g><g
     id="g22"
     transform="matrix(0.07025945,-0.80306923,0.80306923,0.07025945,35.064601,48.138779)"><path
       fill="#292f33"
       d="M 3.651,29.852 29.926,3.576 c 0.391,-0.391 2.888,2.107 2.497,2.497 L 6.148,32.349 C 5.758,32.74 3.26,30.242 3.651,29.852 Z"
       id="path1-2" /><path
       fill="#66757f"
       d="M 30.442,4.051 4.146,30.347 5.029,31.23 31.325,4.934 Z"
       id="path2-6" /><path
       fill="#e1e8ed"
       d="M 34.546,2.537 34.134,2.125 33.463,1.454 A 0.967,0.967 0 0 0 33.208,1.285 0.988,0.988 0 0 0 32.049,1.454 l -2.102,2.102 0.495,0.495 0.883,0.883 1.119,1.119 2.102,-2.102 a 0.999,0.999 0 0 0 0,-1.414 z M 5.029,31.23 4.146,30.347 3.651,29.852 1.442,32.06 a 0.988,0.988 0 0 0 -0.169,1.159 c 0.046,0.09 0.094,0.18 0.169,0.255 l 0.671,0.671 0.412,0.412 a 0.999,0.999 0 0 0 1.414,0 l 2.208,-2.208 z"
       id="path3-6" /><path
       fill="#f5f8fa"
       d="M 31.325,4.934 34.134,2.125 33.463,1.454 A 0.967,0.967 0 0 0 33.208,1.285 L 30.441,4.052 Z M 4.146,30.347 1.273,33.22 c 0.046,0.09 0.094,0.18 0.169,0.255 l 0.671,0.671 2.916,-2.916 z"
       id="path4" /></g><g
     fill="#ffa64d"
     id="g7"
     transform="matrix(0.00541811,-0.0515498,0.0515498,0.00541811,25.63076,19.226176)"><path
       d="M 13.221978,183.04469 C 30.007326,165.97802 244.27839,4.7824176 247.93553,8.4395604 250.74872,11.252747 91.428571,228.05568 74.549451,245.02857 57.67033,262.00146 30.288645,261.81392 13.409524,244.74725 -3.56337,227.68059 -3.56337,200.01758 13.221978,183.04469 Z"
       opacity="0.5"
       id="path1-6" /><path
       d="M 22.69304,175.44908 C 43.323077,163.35238 252.81172,80.269597 255.34359,84.770696 257.31282,88.240293 86.552381,239.30842 65.828571,251.31135 45.198535,263.31429 18.848352,256.09377 6.9391941,235.08865 -4.9699634,214.27106 2.0630037,187.54579 22.69304,175.44908 Z"
       opacity="0.3"
       id="path2-2" /><path
       d="M 82.051282,235.27619 C 94.054213,214.45861 176.38681,3.4695971 171.97949,0.93772894 168.50989,-1.0315018 18.660806,171.04176 6.6578755,191.85934 -5.2512821,212.67692 1.9692308,239.21465 22.786813,251.12381 43.510623,263.12674 70.048352,256 82.051282,235.27619 Z"
       opacity="0.3"
       id="path3-5" /><path
       d="m 32.72674,171.04176 c 23.068132,-6.28279 216.52161,-30.19487 217.9282,-25.22491 1.03151,3.84469 -172.729665,103.4315 -195.797797,109.71429 C 31.789011,261.81392 8.1582418,247.93553 2.0630037,224.58608 -4.0322344,201.23663 9.7523809,177.32454 32.72674,171.04176 Z"
       opacity="0.2"
       id="path4-1" /><path
       d="m 32.72674,171.04176 c 23.068132,-6.28279 179.38755,29.06959 180.70037,33.94579 1.0315,3.84468 -135.595608,44.16703 -158.66374,50.44981 C 31.695238,261.72015 8.0644689,247.84176 1.9692308,224.49231 -4.0322344,201.23663 9.7523809,177.32454 32.72674,171.04176 Z"
       opacity="0.1"
       id="path5-3" /><path
       d="M 86.458608,225.05494 C 92.741392,201.79927 57.576557,44.354579 52.606593,43.041758 48.761905,42.010256 8.814652,179.57509 2.625641,202.83077 c -6.189011,23.25568 7.595604,47.07399 30.757509,53.07546 23.068132,6.18901 46.886447,-7.59561 53.075458,-30.85129 z"
       opacity="0.1"
       id="path6-9" /><path
       d="M 86.458608,225.05494 C 92.741392,201.79927 116.37216,6.9391941 111.49597,5.6263736 107.65128,4.5948718 8.9084249,179.57509 2.625641,202.92454 -3.56337,226.18022 10.221245,249.99853 33.38315,256 c 23.068132,6.18901 46.886447,-7.68938 53.075458,-30.94506 z"
       opacity="0.2"
       id="path7-7" /></g></svg>
